#!OML:ASF F:\VICON\USERDATA\INSTALL\rory3\rory3.ASF
:FULLY-SPECIFIED
:DEGREES
379
root -0.758359 14.9437 17.909 133.499 -67.8353 -160.885
lowerback -12.56 -6.88012 9.13359
upperback -9.783 -11.2389 11.1673
thorax -2.86031 -6.22229 5.69308
lowerneck -4.78983 -12.2007 -13.6491
upperneck 37.4202 -20.6141 -1.88654
head 15.1267 -12.5442 -1.95273
rclavicle 2.22639e-014 8.26944e-014
rhumerus 9.9732 62.5472 -88.6298
rradius 59.175
rwrist -18.2067
rhand -15.3675 -46.2624
rfingers 7.12502
rthumb -169.19 824.036
lclavicle 2.22639e-014 8.26944e-014
lhumerus 51.793 12.7388 72.7856
lradius 18.1509
lwrist 35.4442
lhand -36.6336 -14.8011
lfingers 7.12502
lthumb -9.72118 14.9546
rfemur -56.7677 -14.7239 37.7229
rtibia 74.8919
rfoot 1.29846 -15.9674
rtoes 18.7692
lfemur -25.502 40.9708 -25.8989
ltibia 109.614
lfoot 15.3693 -23.6946
ltoes -2.89222
380
root -0.743111 14.9396 17.8231 133.723 -68.4565 -161.152
lowerback -12.6367 -7.01822 9.08534
upperback -9.75182 -11.4225 11.2044
thorax -2.76214 -6.30454 5.72029
lowerneck -5.32725 -12.113 -13.9349
upperneck 37.6192 -20.2558 -2.01431
head 15.3391 -12.4095 -1.97978
rclavicle 1.145e-013 -1.43125e-013
rhumerus 11.138 63.7372 -87.4605
rradius 59.3068
rwrist -18.9726
rhand -16.1437 -46.8743
rfingers 7.12502
rthumb -169.939 823.386
lclavicle 1.145e-013 -1.43125e-013
lhumerus 51.7262 13.4305 72.7883
lradius 18.1245
lwrist 35.4037
lhand -36.6158 -14.7614
lfingers 7.12502
lthumb -9.70397 14.9951
rfemur -56.8933 -14.73 37.3772
rtibia 75.0569
rfoot 1.25724 -15.8406
rtoes 18.4989
lfemur -25.7681 40.6044 -26.5493
ltibia 109.574
lfoot 15.3394 -23.4168
ltoes -2.86085
381
root -0.728489 14.9344 17.7373 133.517 -68.7629 -160.877
lowerback -12.7396 -6.87433 9.18253
upperback -9.83881 -11.2343 11.0985
thorax -2.84956 -6.21643 5.57536
lowerneck -4.98776 -11.865 -14.371
upperneck 37.6523 -20.1319 -1.33172
head 15.4335 -12.3437 -1.61872
rclavicle 2.8625e-014 6.99722e-014
rhumerus 10.8588 63.4923 -87.8887
rradius 58.9712
rwrist -18.7958
rhand -16.3337 -46.9505
rfingers 7.12502
rthumb -170.122 823.301
lclavicle 2.8625e-014 6.99722e-014
lhumerus 51.5921 13.0074 72.6351
lradius 18.1258
lwrist 35.5508
lhand -36.9123 -14.6861
lfingers 7.12502
lthumb -9.99002 15.0568
rfemur -57.1005 -14.75 37.4875
rtibia 75.2026
rfoot 1.3189 -15.7085
rtoes 18.4237
lfemur -26.1502 40.362 -26.7947
ltibia 109.609
lfoot 15.4079 -23.2467
ltoes -2.53314
382
root -0.711811 14.9346 17.6446 133.379 -69.0602 -160.751
lowerback -12.7656 -6.81468 9.09546
upperback -9.9017 -11.1411 11.0932
thorax -2.89132 -6.16719 5.62777
lowerneck -4.72538 -11.9585 -13.9507
upperneck 37.5644 -20.1831 -1.81153
head 15.2078 -12.3862 -1.81877
rclavicle 1.59028e-014 -1.27222e-014
rhumerus 10.4497 63.1376 -88.5985
rradius 58.4885
rwrist -18.1633
rhand -15.7004 -46.6299
rfingers 7.12502
rthumb -169.511 823.652
lclavicle 1.59028e-014 -1.27222e-014
lhumerus 51.555 13.0646 72.8991
lradius 18.014
lwrist 35.3434
lhand -36.9751 -14.8431
lfingers 7.12502
lthumb -10.0507 14.8969
rfemur -57.198 -14.6541 37.5093
rtibia 75.3053
rfoot 1.35969 -15.6581
rtoes 18.6751
lfemur -26.2942 40.2487 -26.8619
ltibia 109.572
lfoot 15.8106 -23.0249
ltoes -1.5825
383
root -0.693467 14.9395 17.5517 133.303 -69.5191 -160.86
lowerback -12.6918 -6.83264 8.85146
upperback -9.88725 -11.1097 11.0211
thorax -2.88375 -6.13481 5.68711
lowerneck -4.5559 -12.0494 -13.9277
upperneck 37.5218 -20.4568 -1.62419
head 15.1939 -12.4801 -1.77808
rclavicle 6.04305e-014 -9.54166e-014
rhumerus 10.3386 62.9808 -88.8272
rradius 58.4196
rwrist -17.5775
rhand -15.1037 -46.4476
rfingers 7.12502
rthumb -168.935 823.864
lclavicle 6.04305e-014 -9.54166e-014
lhumerus 51.5869 13.321 73.1638
lradius 17.8887
lwrist 35.0913
lhand -36.4771 -14.7527
lfingers 7.12502
lthumb -9.57015 15.0099
rfemur -57.0665 -14.5094 37.2655
rtibia 75.3634
rfoot 1.46644 -15.6408
rtoes 17.9514
lfemur -26.1241 40.1048 -27.0091
ltibia 109.437
lfoot 15.7319 -22.916
ltoes -1.77188
